<?xml version="1.0" encoding="utf-8"?>
<!-- Generator: Adobe Illustrator 26.0.1, SVG Export Plug-In . SVG Version: 6.00 Build 0)  -->
<svg version="1.1" id="Layer_1" xmlns="http://www.w3.org/2000/svg" xmlns:xlink="http://www.w3.org/1999/xlink" x="0px" y="0px"
	 viewBox="0 0 576 576" style="enable-background:new 0 0 576 576;" xml:space="preserve">
<style type="text/css">
	.st0{fill:#FFFFFF;}
</style>
<g>
	<path class="st0" d="M132.07,309.58c-5.19-13.68-6.97-26.81-6.27-40.26c1.89-36.18,17.62-66.52,40.74-93.31
		c32.85-38.07,74.32-62.82,122.29-77.11c29.08-8.67,58.74-11.97,88.9-8.5c30.76,3.54,59.06,13.43,81.8,35.47
		c23.53,22.81,33.08,50.95,29.78,83.31c-3.49,34.19-19.17,63-41.64,88.17c-42.15,47.2-95.36,74.01-157.62,83.33
		c-9.53,1.43-19.25,1.62-28.88,2.39c-0.08-0.4-0.15-0.81-0.23-1.21c1-0.27,1.99-0.66,3.01-0.8c52.09-7.1,96.33-29.44,131.63-68.59
		c15.97-17.71,27.63-38.03,32.59-61.67c8.71-41.49-9.9-78.41-48.36-96.41c-27.12-12.69-55.69-14.72-84.8-10.81
		c-34.58,4.64-66.09,17.55-94.55,37.7c-26.72,18.93-48.12,42.41-60.73,73.07c-6.41,15.59-9.42,31.78-7.43,48.69
		c0.18,1.52,0.29,3.06,0.39,4.59C132.71,307.92,132.52,308.21,132.07,309.58z"/>
	<path class="st0" d="M157.6,416.14c2.5-4.14,4.14-7.01,5.92-9.79c43.24-67.38,86.55-134.72,129.62-202.21
		c3.36-5.26,7.53-3.94,12.68-4.05c-0.88,1.92-1.47,3.42-2.24,4.82c-37.75,68.85-75.54,137.67-113.21,206.56
		c-1.96,3.58-4.08,5.02-8.26,4.79C174.47,415.84,166.78,416.14,157.6,416.14z"/>
	<path class="st0" d="M83.96,416.11c2.84-4.56,4.87-7.91,6.98-11.2c43.04-67.09,86.14-134.15,129.07-201.32
		c3.26-5.11,7.47-3.24,12.41-3.43c-1.43,2.8-2.54,5.09-3.76,7.32c-37.13,67.73-74.33,135.44-111.32,203.25
		c-2.35,4.31-4.94,5.76-9.7,5.49C100.22,415.8,92.74,416.11,83.96,416.11z"/>
	<path class="st0" d="M346.19,200.29c-3.83,7.06-7.23,13.39-10.68,19.68c-35.04,63.86-70.12,127.7-105.07,191.61
		c-1.85,3.39-3.8,4.87-7.83,4.67c-7.8-0.39-15.64-0.12-24.48-0.12c0.97-1.99,1.4-3.18,2.07-4.23
		c44.3-69.09,88.7-138.13,132.81-207.34C336.42,199.2,340.48,199.92,346.19,200.29z"/>
	<path class="st0" d="M121.71,416.14c1.32-2.44,1.93-3.77,2.72-4.99c44.39-69.2,88.84-138.36,133.1-207.63
		c3.19-4.99,7.3-3.08,12.19-3.45c-0.98,2.09-1.62,3.71-2.45,5.23c-37.73,68.85-75.5,137.68-113.16,206.57
		c-1.79,3.27-3.74,4.55-7.54,4.39C138.66,415.9,130.73,416.14,121.71,416.14z"/>
	<g>
		<path class="st0" d="M428.54,453.45c1.46,0.92,2.78,1.57,3.89,2.48c6.85,5.59,5.23,16.66-3.12,21.54
			c-3.82,2.24-8.01,3.18-12.35,3.29c-6.11,0.16-12.23,0.06-18.34,0.15c-1.55,0.02-2.16-0.49-2.16-2.06c0.03-16.1,0-32.21,0.1-48.31
			c0-0.64,1.09-1.83,1.67-1.83c7.48,0.02,14.97,0.16,22.45,0.41c1.51,0.05,3.06,0.55,4.5,1.08
			C436.29,434.29,437.37,447.74,428.54,453.45z M413.66,457.99c-0.01,0.1-0.03,0.2-0.04,0.3c-1.8,0-3.63-0.16-5.4,0.08
			c-0.69,0.1-1.76,1.09-1.79,1.71c-0.16,3.6-0.11,7.21,0,10.81c0.02,0.55,0.77,1.53,1.19,1.54c5.04,0.04,10.16,0.66,14.98-1.48
			c2.54-1.13,3.94-3.42,3.85-6.13c-0.09-2.66-1.67-4.97-4.45-5.63C419.29,458.54,416.45,458.37,413.66,457.99z M412.74,450.11
			c1.97-0.11,3.96-0.1,5.91-0.37c3.35-0.47,5.49-2.85,5.65-6.03c0.16-3.22-1.44-5.46-4.92-6.24c-2.06-0.46-4.26-0.46-6.39-0.48
			c-6.64-0.07-6.64-0.03-6.64,6.54C406.34,450.04,406.34,450.04,412.74,450.11z"/>
		<path class="st0" d="M360.34,457.63c-0.08,6.27-2.55,14.44-10.53,19.98c-15.78,10.96-37.26,1.65-39.95-17.28
			c-0.85-5.97-0.61-11.88,1.66-17.53c4.34-10.83,14.39-16.43,26.63-14.99C352.2,429.46,360.36,439.33,360.34,457.63z M350.72,455.07
			c-0.72-3.44-1.08-6.45-2-9.28c-2-6.2-7.1-9.69-13.71-9.76c-6.44-0.07-11.55,3.29-13.76,9.33c-2.31,6.29-2.32,12.68,0.07,18.94
			c2.22,5.81,6.68,8.87,12.85,9.11c6.33,0.25,11.37-2.26,13.88-8.26C349.42,461.88,349.91,458.24,350.72,455.07z"/>
		<path class="st0" d="M445.98,454.67c0-7.74,0.08-15.49-0.05-23.23c-0.04-2.32,0.74-3,2.97-2.87c6.95,0.38,13.98,0.07,20.83,1.03
			c14.17,2,22.44,13,21.22,27.26c-1.2,13.94-9.5,22.13-24.42,23.52c-6.15,0.57-12.37,0.33-18.56,0.53c-1.94,0.06-2.01-1.09-2-2.49
			C445.99,470.5,445.98,462.59,445.98,454.67z M455.91,454.75c0,5.07,0.09,10.15-0.05,15.22c-0.06,2.11,0.7,2.76,2.68,2.57
			c2.74-0.25,5.51-0.22,8.22-0.59c5.19-0.71,9.71-2.89,12.04-7.8c2.64-5.58,2.81-11.46,0.62-17.31c-1.51-4.04-4.4-6.98-8.46-8.06
			c-4.01-1.06-8.26-1.23-12.41-1.8c-1.97-0.27-2.75,0.42-2.69,2.54C456.01,444.6,455.92,449.67,455.91,454.75z"/>
		<path class="st0" d="M141.54,450.03c6.18,0,11.94,0.11,17.69-0.05c2.37-0.07,3.16,0.6,3.05,3.02c-0.26,6.11,0.85,5.22-5.43,5.28
			c-4.31,0.04-8.62,0.07-12.92-0.02c-1.71-0.03-2.51,0.38-2.43,2.29c0.14,3.27,0.13,6.55,0,9.82c-0.06,1.75,0.61,2.21,2.25,2.2
			c6.89-0.06,13.78,0.05,20.67-0.06c2.06-0.03,2.65,0.64,2.63,2.67c-0.07,5.72,0.02,5.71-5.72,5.71c-8.96,0-17.92-0.05-26.88,0.04
			c-2.06,0.02-2.86-0.47-2.85-2.71c0.09-15.68,0.08-31.36,0-47.04c-0.01-2.08,0.66-2.65,2.67-2.63c9.56,0.08,19.13,0.09,28.69-0.01
			c2.15-0.02,2.83,0.67,2.76,2.81c-0.22,6.61,0.91,5.53-5.6,5.61c-5.43,0.06-10.86,0.08-16.28-0.02c-1.82-0.03-2.41,0.58-2.35,2.38
			C141.62,442.74,141.54,446.17,141.54,450.03z"/>
		<path class="st0" d="M234.31,460.75c0,5.68,0,11.09,0,16.5c0,3.67,0,3.67-3.62,3.66c-6.24-0.02-6.24-0.02-6.24-6.21
			c0-14.38,0.06-28.77-0.06-43.15c-0.02-2.47,0.8-3.12,3.1-2.99c7.46,0.42,14.99,0.26,22.38,1.19c7.42,0.93,11.75,6.02,12.51,13.08
			c0.74,6.88-2.75,12.49-9.57,15.49c-4.69,2.06-9.65,2.39-14.67,2.43C237.03,460.75,235.92,460.75,234.31,460.75z M234.35,436.61
			c0,5.29-0.03,9.91,0.06,14.53c0.01,0.43,0.79,1.18,1.25,1.21c4.31,0.29,8.61,0.27,12.65-1.62c2.66-1.25,4.05-3.75,3.88-6.96
			c-0.16-3.08-1.41-5.2-4.54-5.8C243.41,437.16,239.04,437.05,234.35,436.61z"/>
		<path class="st0" d="M186.63,460.72c0,5.94-0.13,11.53,0.06,17.1c0.09,2.58-0.81,3.17-3.23,3.13c-6.73-0.13-6.73-0.03-6.73-6.81
			c0-14.21,0.05-28.43-0.04-42.64c-0.01-2.2,0.49-3.09,2.86-2.95c7.38,0.42,14.82,0.24,22.14,1.08c7.43,0.85,12.08,5.84,12.87,12.45
			c0.91,7.57-2.2,13.35-9.53,16.15c-3.78,1.44-8,1.82-12.05,2.44C191.05,460.97,189.04,460.72,186.63,460.72z M186.63,444.5
			c0,1.98-0.12,3.96,0.07,5.92c0.07,0.69,0.86,1.83,1.4,1.88c4.22,0.4,8.43,0.3,12.37-1.55c2.94-1.38,4.36-4.07,4.04-7.37
			c-0.29-2.99-2.11-5.04-5.36-5.77c-1.58-0.36-3.22-0.54-4.84-0.59C186.63,436.77,186.63,436.8,186.63,444.5z"/>
		<path class="st0" d="M93.78,460.75c0,5.82-0.1,11.4,0.05,16.97c0.06,2.37-0.5,3.31-3.12,3.25c-6.73-0.17-6.73-0.04-6.73-6.72
			c0-14.45,0-28.91-0.01-43.36c0-1.16-0.18-2.35,1.55-2.28c7.89,0.33,15.82,0.27,23.66,1.1c6.61,0.7,11.6,5.7,12.22,10.92
			c1.09,9.17-1.57,14.41-8.98,17.66c-4.67,2.05-9.63,2.44-14.64,2.47C96.51,460.75,95.25,460.75,93.78,460.75z M93.75,444.44
			c-0.01,0-0.01,0-0.02,0c0,1.98-0.15,3.98,0.08,5.93c0.08,0.73,1.08,1.97,1.59,1.94c3.83-0.25,7.72-0.44,11.45-1.29
			c3.31-0.76,5.05-3.78,4.9-7.03c-0.15-3.45-1.94-5.8-5.63-6.36c-3.55-0.54-7.2-0.54-10.8-0.57c-0.52-0.01-1.42,1.06-1.49,1.7
			C93.62,440.63,93.75,442.54,93.75,444.44z"/>
		<path class="st0" d="M282.07,450.76c0,6.2,0.1,12.4-0.05,18.59c-0.06,2.43,0.57,3.32,3.14,3.25c6.19-0.18,12.4,0.01,18.59-0.1
			c2.05-0.04,2.66,0.62,2.62,2.67c-0.11,5.71-0.02,5.71-5.73,5.71c-8.61,0-17.22-0.06-25.83,0.04c-2.05,0.02-2.67-0.62-2.66-2.65
			c0.07-15.67,0.07-31.34,0-47c-0.01-1.98,0.49-2.71,2.59-2.71c7.32-0.01,7.32-0.08,7.32,7.23
			C282.06,440.77,282.06,445.77,282.07,450.76C282.06,450.76,282.06,450.76,282.07,450.76z"/>
		<path class="st0" d="M368.56,458.42c0-3.02,0-5.64,0-8.46c5.83,0,11.52,0,17.56,0c0,2.48,0.05,4.85-0.05,7.22
			c-0.02,0.43-0.65,1.19-1,1.19C379.61,458.44,374.15,458.42,368.56,458.42z"/>
	</g>
</g>
</svg>
